<?xml version="1.0" encoding="UTF-8"?>
<svg width="512px" height="512px" viewBox="0 0 512 512" xmlns="http://www.w3.org/2000/svg" xmlns:xlink="http://www.w3.org/1999/xlink" version="1.1">
 <!-- Generated by Pixelmator Pro 2.3 -->
 <path id="Rounded-Rectangle" d="M56 16 C33.909 16 16 33.909 16 56 L16 456 C16 478.091 33.909 496 56 496 L456 496 C478.091 496 496 478.091 496 456 L496 56 C496 33.909 478.091 16 456 16 Z" fill="#243041" fill-opacity="1" stroke="#76a5af" stroke-width="3.5" stroke-opacity="1" stroke-linejoin="round" stroke-linecap="round"/>
 <defs>
  <linearGradient id="linear-gradient" gradientUnits="userSpaceOnUse" x1="106" y1="256.5" x2="406" y2="256.5">
   <stop offset="0" stop-color="#006962" stop-opacity="1"/>
   <stop offset="0.504" stop-color="#00cfc1" stop-opacity="1"/>
   <stop offset="1" stop-color="#006962" stop-opacity="1"/>
  </linearGradient>
 </defs>
 <path id="Path" d="M106 428 C106 428 129.825 360.276 163 341 216.319 310.019 294.565 310.22 348 341 381.391 360.234 406 428 406 428 L406 85 C406 85 384.044 165.065 348 190 313.431 213.915 215.234 222.777 163 190 126 166.782 106 85 106 85 L106 428 Z" fill-opacity="1" fill="url(#linear-gradient)" stroke="#333333" stroke-width="3.5" stroke-opacity="0.478" stroke-linejoin="round" stroke-linecap="round"/>
 <path id="Ellipse" d="M163 256.5 C163 161.783 137.256 85 105.5 85 73.744 85 48 161.783 48 256.5 48 351.217 73.744 428 105.5 428 137.256 428 163 351.217 163 256.5 Z" fill="#00c1b4" fill-opacity="1" stroke="#134f5c" stroke-width="3.5" stroke-opacity="1" stroke-linejoin="round" stroke-linecap="round"/>
 <path id="Ellipse-copy" d="M463 256.5 C463 161.783 437.256 85 405.5 85 373.744 85 348 161.783 348 256.5 348 351.217 373.744 428 405.5 428 437.256 428 463 351.217 463 256.5 Z" fill="#00c1b4" fill-opacity="1" stroke="#134f5c" stroke-width="3.5" stroke-opacity="1" stroke-linejoin="round" stroke-linecap="round"/>
 <defs>
  <linearGradient id="linear-gradient-1" gradientUnits="userSpaceOnUse" x1="400.669" y1="161.242" x2="411.331" y2="351.758">
   <stop offset="0" stop-color="#006762" stop-opacity="1"/>
   <stop offset="0.22" stop-color="#00c1b4" stop-opacity="1"/>
   <stop offset="0.74" stop-color="#019187" stop-opacity="1"/>
  </linearGradient>
 </defs>
 <path id="Ellipse-1" d="M431 256.5 C431 202.652 419.807 159 406 159 392.193 159 381 202.652 381 256.5 381 310.348 392.193 354 406 354 419.807 354 431 310.348 431 256.5 Z" fill-opacity="1" fill="url(#linear-gradient-1)" stroke="#333333" stroke-width="3.5" stroke-opacity="0" stroke-linejoin="round" stroke-linecap="round"/>
 <defs>
  <linearGradient id="linear-gradient-2" gradientUnits="userSpaceOnUse" x1="100.669" y1="161.242" x2="111.331" y2="351.758">
   <stop offset="0" stop-color="#006762" stop-opacity="1"/>
   <stop offset="0.22" stop-color="#00c1b4" stop-opacity="1"/>
   <stop offset="0.74" stop-color="#019187" stop-opacity="1"/>
  </linearGradient>
 </defs>
 <path id="Ellipse-copy-1" d="M131 256.5 C131 202.652 119.807 159 106 159 92.193 159 81 202.652 81 256.5 81 310.348 92.193 354 106 354 119.807 354 131 310.348 131 256.5 Z" fill-opacity="1" fill="url(#linear-gradient-2)" stroke="#333333" stroke-width="3.5" stroke-opacity="0" stroke-linejoin="round" stroke-linecap="round"/>
</svg>
