<?xml version="1.0" encoding="UTF-8" standalone="no"?>
<svg width="32px" height="32px" viewBox="0 0 32 32" version="1.1" xmlns="http://www.w3.org/2000/svg" xmlns:xlink="http://www.w3.org/1999/xlink" xmlns:sketch="http://www.bohemiancoding.com/sketch/ns">
    <!-- Generator: Sketch 3.0.3 (7891) - http://www.bohemiancoding.com/sketch -->
    <title>icon 93 inbox upload</title>
    <desc>Created with Sketch.</desc>
    <defs></defs>
    <g id="Page-1" stroke="none" stroke-width="1" fill="none" fill-rule="evenodd" sketch:type="MSPage">
        <g id="icon-93-inbox-upload" sketch:type="MSArtboardGroup" fill="#000000">
            <path d="M16,6 L12.75,9.25 L12,8.5 L16.5,4 L21,8.5 L20.25,9.25 L17,6 L17,17 L16,17 L16,6 L16,6 Z M21,19 L27.7750244,19 L23.4000244,12 L18,12 L18,11 L24,11 L29,19 L29,20 L29,28 L4,28 L4,19 L9,11 L15,11 L15,11 L15,12 L9.59997559,12 L5.22497559,19 L12,19 L12,21 C12,22.1045695 12.8958578,23 13.9973917,23 L19.0026083,23 C20.1057373,23 21,22.1122704 21,21 L21,19 L21,19 L21,19 Z" id="inbox-upload" sketch:type="MSShapeGroup"></path>
        </g>
    </g>
</svg>